<svg xmlns="http://www.w3.org/2000/svg" viewBox="0 0 181.88 181.88"><defs><style>.cls-1{fill:#fff;}.cls-2{fill:none;stroke:#000;stroke-miterlimit:2.64;stroke-width:3.3px;}.cls-3{isolation:isolate;font-size:17.9px;font-family:SourceHanSansJP-Heavy-83pv-RKSJ-H, Source Han Sans JP;}</style></defs><g id="レイヤー_2" data-name="レイヤー 2"><g id="レイヤー_1-2" data-name="レイヤー 1"><g id="グループ_70" data-name="グループ 70"><g id="楕円形_17" data-name="楕円形 17"><circle class="cls-1" cx="91.1" cy="90.93" r="90.41"/><circle class="cls-2" cx="90.94" cy="90.94" r="89.29"/></g><g id="b-6"><g id="c-6"><g id="グループ_59" data-name="グループ 59"><g id="グループ_50" data-name="グループ 50"><path id="パス_51" data-name="パス 51" class="cls-1" d="M126.77,71.6h-.33c-1.39-21.66-11.82-39-35.53-39S56.76,50,55.38,71.6h-.33c-4.63-2.71-11.36,2.51-10.31,8.92C47,93.86,47.85,97.16,51.81,99.21a9.75,9.75,0,0,0,3.9,1.05h.39c1.32,8.39,4,14.6,7.33,19.29,5.16,7.2,18.43,14.72,27.48,14.72s22.32-7.52,27.47-14.72c3.37-4.69,6-10.9,7.33-19.29h.4A10.31,10.31,0,0,0,130,99.21c4-2,4.83-5.29,7.07-18.69,1.12-6.41-5.61-11.69-10.3-8.92Z"/><path id="パス_52" data-name="パス 52" d="M136,72.13a8.61,8.61,0,0,0-8.06-2.71C126.11,47.76,114,30.72,90.91,31c-23.18-.26-35.27,17-37,38.44C47.65,68,42,74.64,43.09,80.78h0c1.13,6.67,1.92,10.9,3,13.87a10.36,10.36,0,0,0,8.59,7.13c1.12,6.67,3.83,13.87,7.4,18.69,6.21,8.12,18.69,15.13,28.86,15.39,10.3-.26,22.72-7.4,28.86-15.39,3.56-4.82,6.34-12,7.4-18.69,6.47-1,8.65-5.48,9.9-11.82.53-2.44,1.06-5.42,1.65-9.18h0A10,10,0,0,0,136,72.13Zm-.46,8.06c-1.13,6.67-1.92,10.76-2.78,13.27a6.59,6.59,0,0,1-5,4.76c.26-2.32.46-4.83.59-7.47a1.65,1.65,0,0,0-3.3-.13v.07a65.55,65.55,0,0,1-2.51,16.57c-2.38,7.27-4.69,11.63-10.3,16.25s-14.4,9-21.27,9c-9.24-.33-20.67-6.87-26.15-14.07a38.86,38.86,0,0,1-5.41-11.23A65.55,65.55,0,0,1,56.9,90.69a1.66,1.66,0,0,0-3.31.13h0a66.69,66.69,0,0,0,.6,7.46c-4.43-1.19-5.09-4.56-6.14-9-.53-2.31-1.06-5.41-1.66-9.18v.14c-.79-4,3.24-8.79,7.34-7.47-.07,1.32-.14,2.71-.14,4a1.66,1.66,0,0,0,3.31,0h0C56.7,54.49,66.34,33.89,91,34.15c13.74-.13,24.31,6.41,29.66,18.69,3,6.81,4.42,15.06,4.42,23.91a1.65,1.65,0,1,0,3.3,0h0c0-1.39-.06-2.71-.13-4.09,4-1.26,8.06,3.56,7.27,7.53Z"/></g><path id="パス_53" data-name="パス 53" d="M90.91,25.74C50.43,14.58,35.57,76.73,39,96.14S64.69,121,61.72,116.82a26.05,26.05,0,0,1-4-9.25l5.54.33S60.4,106,60.4,92.84c0-7.66,3.5-14.79,6.34-19.41a68,68,0,0,0,7.13-15.59l1-3.17c-.2,3.1,4.23,22.92,11.49,26.88h8.26c-3.57-5-5.35-13.87-5.35-13.87s4.09,8.45,8.91,13.87h7.27a40.67,40.67,0,0,1-2.18-8.79s3,4.36,6.54,8.79h5.74l-4.36-13.47s10.24,11.62,10.24,24.7-2.9,15-2.9,15l5.54-.33a25.9,25.9,0,0,1-4,9.25c-3,4.23,19.29-1.26,22.72-20.67S131.39,14.52,90.91,25.74Z"/><g id="グループ_51" data-name="グループ 51"><path id="パス_54" data-name="パス 54" d="M80.92,113.47a.53.53,0,0,0,.53-.33,10.13,10.13,0,0,0,1.52.72,17.23,17.23,0,0,0,2.24,6.74,9,9,0,0,0,2.38,2.64,5.16,5.16,0,0,0,6.34,0A10.32,10.32,0,0,0,97.17,119a16.66,16.66,0,0,0,1.38-5,10.16,10.16,0,0,0,1.52-.73.68.68,0,0,0,.53.33.59.59,0,0,0,.6-.59,3,3,0,0,0-1.66-2.71.67.67,0,0,0-.85.33.59.59,0,0,0,.06.66c-.59.33-2.9,1.52-8,1.59a22.31,22.31,0,0,1-6.54-.86,5.79,5.79,0,0,1-1.39-.6c-.07-.06-.13-.06-.2-.13a.62.62,0,0,0-.06-.86.62.62,0,0,0-.66-.06h0a2.87,2.87,0,0,0-1.46,1.58,3.45,3.45,0,0,0-.2,1.13.79.79,0,0,0,.73.46Z"/><path id="パス_55" data-name="パス 55" class="cls-1" d="M96.11,114.59a15.4,15.4,0,0,1-1.78,4.76,7.19,7.19,0,0,1-1.72,2,2.7,2.7,0,0,1-3.5,0A8.47,8.47,0,0,1,86.6,118a18.93,18.93,0,0,1-1.06-3.37,31.78,31.78,0,0,0,10.57,0Z"/></g><g id="グループ_52" data-name="グループ 52"><path id="パス_56" data-name="パス 56" class="cls-1" d="M90.71,106.07c-2.24.27-3.43-1.85-1.45-2.44s4-.13,4.16.86S92.69,105.81,90.71,106.07Z"/><path id="パス_57" data-name="パス 57" d="M93.49,105.21c-.2-.19-1.13.4-2.58.4s-2.38-.59-2.58-.4c-.52.53.73,1.79,2.58,1.79S94,105.74,93.49,105.21Z"/></g><g id="グループ_57" data-name="グループ 57"><g id="グループ_54" data-name="グループ 54"><path id="パス_58" data-name="パス 58" class="cls-1" d="M80.5,87.93a11.43,11.43,0,0,1,1.19,5.88c-.2,2.44-1.46,4.89-4.3,5.22s-5-2.78-5.15-5.09,1.13-5.61,3.5-6.4a7,7,0,0,1,4.76.39Z"/><g id="グループ_53" data-name="グループ 53"><path id="パス_59" data-name="パス 59" d="M80.5,87.93A6.49,6.49,0,0,0,72.44,94c0,1.52-1.12,1-1.19.59s-1.45-.46-1.71-1.52c1.18-.19,1.38-.92,1.78-2a8.11,8.11,0,0,1,4.29-4.49,2.56,2.56,0,0,0,1.19-2s.79.93.66,1.39c0,0,2.84.73,3,2Z"/><ellipse id="楕円形_15" data-name="楕円形 15" cx="77.39" cy="93.28" rx="3.5" ry="4.62"/></g></g><g id="グループ_56" data-name="グループ 56"><path id="パス_60" data-name="パス 60" class="cls-1" d="M101.36,87.93a11.43,11.43,0,0,0-1.19,5.88c.2,2.44,1.46,4.89,4.3,5.22s5-2.78,5.15-5.09-1.12-5.61-3.5-6.4a7,7,0,0,0-4.76.39Z"/><g id="グループ_55" data-name="グループ 55"><path id="パス_61" data-name="パス 61" d="M101.37,87.93A6.49,6.49,0,0,1,109.43,94c0,1.52,1.12,1,1.18.59s1.46-.46,1.72-1.52c-1.19-.19-1.38-.92-1.78-2a8.11,8.11,0,0,0-4.29-4.49,2.53,2.53,0,0,1-1.19-2s-.8.93-.66,1.39c0,0-2.84.73-3,2Z"/><ellipse id="楕円形_16" data-name="楕円形 16" cx="104.47" cy="93.28" rx="3.5" ry="4.62"/></g></g></g><g id="グループ_58" data-name="グループ 58"><path id="パス_62" data-name="パス 62" d="M74.69,77.23c1.85-.93,5.35-2.65,7.07-3.44a1.24,1.24,0,0,1,1.52.4l1.52,2.18a.55.55,0,0,1-.13.79.5.5,0,0,1-.33.13l-9.51.46a.24.24,0,0,1-.27-.26.49.49,0,0,1,.13-.26Z"/><path id="パス_63" data-name="パス 63" d="M107.12,77.23c-1.85-.93-5.35-2.65-7.06-3.44a1.24,1.24,0,0,0-1.52.4L97,76.37a.55.55,0,0,0,.13.79.5.5,0,0,0,.33.13l9.51.46a.24.24,0,0,0,.26-.26.43.43,0,0,0-.13-.26Z"/></g></g></g></g><text class="cls-3" transform="translate(52.42 156.22)">20代女性</text></g></g></g></svg>