<svg xmlns="http://www.w3.org/2000/svg" viewBox="0 0 181.88 181.88"><defs><style>.cls-1{fill:#fff;}.cls-2{fill:none;stroke:#000;stroke-miterlimit:2.64;stroke-width:3.3px;}.cls-3{isolation:isolate;font-size:17.9px;font-family:SourceHanSansJP-Heavy-83pv-RKSJ-H, Source Han Sans JP;}</style></defs><g id="レイヤー_2" data-name="レイヤー 2"><g id="レイヤー_1-2" data-name="レイヤー 1"><g id="グループ_72" data-name="グループ 72"><g id="楕円形_19" data-name="楕円形 19"><circle class="cls-1" cx="91.38" cy="90.91" r="90.41"/><circle class="cls-2" cx="90.94" cy="90.94" r="89.29"/></g><text class="cls-3" transform="translate(53.35 157.15)">30代男性</text><g id="b-7"><g id="c-7"><g id="グループ_69" data-name="グループ 69"><g id="グループ_65" data-name="グループ 65"><path id="パス_76" data-name="パス 76" class="cls-1" d="M127.21,70.81h-.33C125.5,49.54,115.26,32.57,92,32.57s-33.48,17-34.87,38.24h-.33c-4.56-2.71-11.16,2.51-10.1,8.72,2.18,13.07,3,16.31,6.93,18.29a10.89,10.89,0,0,0,3.83,1.06h.4c1.32,8.25,3.17,16.18,6.47,20.8,5.09,7.07,18.82,11.69,27.67,11.69s22.59-4.62,27.67-11.69c3.31-4.62,5.22-12.55,6.48-20.8h.39a9.75,9.75,0,0,0,3.83-1.06c3.9-2,4.76-5.22,6.94-18.29C138.37,73.25,131.77,68.1,127.21,70.81Z"/><path id="パス_77" data-name="パス 77" d="M128.34,68.37c-1.26-13.21-6.08-26.22-17.84-33.16-20.27-11-46.69-2.31-52.63,21.33a101.75,101.75,0,0,0-2.31,11.83c-5.81-1.32-11.69,5.15-10.5,11.16,1.78,7.33,1,15.58,7.79,19.48a10.51,10.51,0,0,0,3.7,1.12c.39,2.91.86,5.42,1.32,7.66,1.45,5.82,2.71,10.83,7.26,14.8,6,5,14.47,9.51,22.52,10.17,11.23,1.32,22.72-2.91,31.11-10.17,5.55-5.09,6.41-10.9,8-18.49.2-1.26.4-2.58.6-4A11.51,11.51,0,0,0,132.63,98c5-4.29,5.15-13.28,6.34-20.08.2-5.55-5.28-10.83-10.63-9.57ZM134.28,87c-.73,4.29-2.11,8.92-6.41,9.77.27-2.24.53-4.62.8-7.33.19-2-3-2.44-3.24-.33h0c-1.52,12.29-1.45,18.69-6.08,27.87-7.85,10-23.24,14.86-35.72,11.76-6.81-2.11-14.86-5.94-19-11.76-2.38-4.29-3.24-7.79-4.23-13.54-.66-3.83-1.25-8.51-1.78-14.33a1.56,1.56,0,0,0-1.72-1.45,1.61,1.61,0,0,0-1.45,1.72v.06q.4,4,.79,7.33c-4.29-.92-5.61-5.28-6.4-9.9-.27-2.84-2.38-8-1-11.49,1-2.45,3.89-4.63,6.53-3.77-.13,3.24.2,5.62,1.66,5.68a1.67,1.67,0,0,0,1.65-1.58h0c-.66-30.12,18.82-50.26,48.74-38.44,13.93,7.07,18,23.38,18.09,38.44-.06,2.11,3.3,2.11,3.24,0,0-1.32-.07-2.64-.13-4,3.56-1.32,7.33,2.65,7.26,6.21-.46,3.24-1.25,6.8-1.65,9Z"/></g><path id="パス_78" data-name="パス 78" d="M134.15,53.94c-1.26-2,5.41,1.71.92-6.94-5.81-11.09-17.63-15.91-17.63-15.91A34.94,34.94,0,0,0,121.67,29C116.91,19.6,92.08,12.46,78,24.28c0,0-16.32-1.91-23.19,12.29l3,.92S49,40.13,43.67,58c-2.91,10,2.58,2.64,2,6.14-.53,3.9-.14,4.43.39,9.45,3-1.65,4.63-2.51,5.55-3,2,1.06,3.76,4.49,4.76,10a38.46,38.46,0,0,0,1,4.23,1.47,1.47,0,0,0,1.78,1.05,1.35,1.35,0,0,0,1.06-1.32l1.18-14.26,1-3.83A14.16,14.16,0,0,0,69,75.73c5.68,3.3,5.22-19.41,6.21-14.2s6.07,13.74,10.3,14.4S84.35,68.73,92,58.69c-.27,8.06,9.24,16.58,12.94,18.49s.53-19,4.82-18c1,5.22,2.84,15.39,11.89,21.07a8.13,8.13,0,0,0,1.32.66l.33,3.7a1.47,1.47,0,0,0,1.59,1.32,1.57,1.57,0,0,0,1.32-1.05c.39-1.33.72-2.78,1-4.23a4.37,4.37,0,0,0,.13-.86,9.92,9.92,0,0,0,1.12-4.16c1-2.84,2.31-4.56,3.7-5.22l-3.83-1.85a.89.89,0,0,0-.07-.39s5.09,2.37,7.07,4.29C137.12,74.15,139,61.66,134.15,53.94Z"/><path id="パス_79" data-name="パス 79" d="M99.81,111.66c-1.06,1-5,1.65-8,1.65s-6.93-.66-8-1.65c-.86-.79-1.32.26-.59,1.32s4.16,2.44,8.58,2.44,7.8-1.45,8.59-2.44S100.66,110.87,99.81,111.66Z"/><path id="パス_80" data-name="パス 80" d="M92.74,101a1.11,1.11,0,0,0-1.45.06c-1.13,1-1.39,1.72-.47,1.92s3,.2,3.37-.33c.2-.33-.72-1.13-1.45-1.65Z"/><g id="グループ_66" data-name="グループ 66"><path id="パス_81" data-name="パス 81" d="M85.4,87.51A7.29,7.29,0,0,0,82.23,85a10,10,0,0,0-4.16-.93,8.42,8.42,0,0,0-6.93,3.44,1.24,1.24,0,0,0,.26,1.71A1.25,1.25,0,0,0,73.12,89h0a5.45,5.45,0,0,1,2.11-1.78,3.47,3.47,0,1,0,6.14,3.23,3.42,3.42,0,0,0,.07-3.1,5.57,5.57,0,0,1,2,1.65,1.23,1.23,0,0,0,1.71.26,1.3,1.3,0,0,0,.2-1.71Z"/><path id="パス_82" data-name="パス 82" d="M98.68,87.51A7.29,7.29,0,0,1,101.85,85a10,10,0,0,1,4.16-.93,8.42,8.42,0,0,1,6.93,3.44,1.24,1.24,0,0,1-.26,1.71A1.25,1.25,0,0,1,111,89h0a5.45,5.45,0,0,0-2.11-1.78,3.47,3.47,0,1,1-6.21.13,5.57,5.57,0,0,0-2,1.65,1.2,1.2,0,1,1-1.91-1.45Z"/></g><g id="グループ_67" data-name="グループ 67"><ellipse id="楕円形_20" data-name="楕円形 20" cx="78.09" cy="78.78" rx="7.26" ry="1.25"/><ellipse id="楕円形_21" data-name="楕円形 21" cx="105.9" cy="78.78" rx="7.26" ry="1.25"/></g><g id="グループ_68" data-name="グループ 68"><path id="パス_83" data-name="パス 83" d="M86.63,85.45v.46c0,3.63-1.13,6.54-3.44,8.46s-5.28,2.84-9.11,2.84a11,11,0,0,1-8.06-3A9.06,9.06,0,0,1,63.51,88V87.5H61.2V88a11.13,11.13,0,0,0,3.17,7.79C66,97.47,69,99.52,74.08,99.52h0c4.36,0,8.06-1.19,10.63-3.44,2.78-2.37,4.23-5.94,4.23-10.23v-.47l-2.31.07Z"/><path id="パス_84" data-name="パス 84" d="M120.44,88a9,9,0,0,1-2.51,6.21c-1.91,2-4.62,3-8.06,3-3.83,0-6.93-1-9.11-2.84a10.76,10.76,0,0,1-3.43-8.46v-.46H95v.46c0,4.3,1.46,7.86,4.23,10.24,2.58,2.24,6.28,3.43,10.63,3.43h0a13,13,0,0,0,9.71-3.76A11.75,11.75,0,0,0,122.75,88v-.47h-2.31V88Z"/><path id="パス_85" data-name="パス 85" d="M122.88,76.47l-2.31-.4c-1.91-.33-5.48-.86-14.2-.86-6.2,0-9.24,3-10.43,4.69a13.46,13.46,0,0,0-3.9-.79,13.33,13.33,0,0,0-3.89.79c-1.19-1.58-4.23-4.69-10.44-4.69-8.72,0-12.28.47-14.2.86l-2.38.46-2.37,1.72v3.57l.13.33.26.13a3.79,3.79,0,0,1,1.06.73c.13.85.26,1.65.33,2.51a1.23,1.23,0,0,0,1.25,1.12h1.46a1.18,1.18,0,0,0,.92-.4,1.05,1.05,0,0,0,.27-1c0-.2-.6-4.49,2.44-5.41a36.25,36.25,0,0,1,9.05-1,36.26,36.26,0,0,1,4.69.26c3.3.4,5.48,2.58,5.81,4.36a1.08,1.08,0,0,0,1.19.92l.92-.06a1.13,1.13,0,0,0,.86-.47,1.14,1.14,0,0,0,.26-.92c0-.13-.06-.26-.06-.46a6.68,6.68,0,0,1,2.31-.4h.66a6.93,6.93,0,0,1,2.31.4,1.22,1.22,0,0,0-.06.46,1.14,1.14,0,0,0,.26.92,1.39,1.39,0,0,0,.86.47l1,.06a1.2,1.2,0,0,0,1.19-1c.33-1.78,2.44-4,5.81-4.36a39.6,39.6,0,0,1,4.69-.26,36.79,36.79,0,0,1,9,1c2.44.73,2.64,3.83,2.44,5.42a1.25,1.25,0,0,0,1.06,1.38h1.65a1.22,1.22,0,0,0,1.25-1.12c.07-.86.2-1.72.33-2.51a3.81,3.81,0,0,1,1.19-.79l.27-.13v-3.9l-3-1.65Z"/></g></g></g></g></g></g></g></svg>