<svg xmlns="http://www.w3.org/2000/svg" viewBox="0 0 181.88 181.88"><defs><style>.cls-1{fill:#fff;}.cls-2{fill:none;stroke:#000;stroke-miterlimit:2.64;stroke-width:3.3px;}.cls-3{isolation:isolate;font-size:17.9px;font-family:SourceHanSansJP-Heavy-83pv-RKSJ-H, Source Han Sans JP;}</style></defs><g id="レイヤー_2" data-name="レイヤー 2"><g id="レイヤー_1-2" data-name="レイヤー 1"><g id="グループ_71" data-name="グループ 71"><g id="楕円形_18" data-name="楕円形 18"><circle class="cls-1" cx="91.12" cy="90.93" r="90.41"/><circle class="cls-2" cx="90.94" cy="90.94" r="89.29"/></g><text class="cls-3" transform="translate(53.32 154.48)">30代女性</text><g id="b-8"><g id="c-8"><g id="グループ_64" data-name="グループ 64"><g id="グループ_60" data-name="グループ 60"><path id="パス_64" data-name="パス 64" class="cls-1" d="M125.11,72.56h-.33c-1.33-20.67-11.3-37.18-33.88-37.18S58.34,51.89,57,72.56h-.33c-4.43-2.64-10.84,2.38-9.84,8.46,2.11,12.74,3,15.85,6.73,17.76a8.78,8.78,0,0,0,3.7,1h.4c1.25,8,3.76,13.87,7,18.36C69.63,125,82.24,132.2,90.9,132.2s21.26-7.2,26.21-14.07c3.24-4.49,5.75-10.37,7-18.36h.39a8.78,8.78,0,0,0,3.7-1C132,96.87,132.83,93.7,135,81c1-6.08-5.42-11.1-9.84-8.46Z"/><path id="パス_65" data-name="パス 65" d="M133.89,73a8.31,8.31,0,0,0-7.66-2.64C124.51,49.71,113,33.53,91,33.73,68.84,33.46,57.35,49.91,55.7,70.38c-6-1.32-11.43,5-10.31,10.83h0c1.06,6.41,1.79,10.37,2.84,13.21a9.89,9.89,0,0,0,8.19,6.8c1.06,6.34,3.63,13.21,7.07,17.84,5.88,7.72,17.76,14.39,27.47,14.72,9.78-.26,21.66-7.06,27.48-14.72,3.43-4.63,6-11.5,7.06-17.84,6.14-.92,8.26-5.21,9.45-11.29.52-2.31,1-5.15,1.58-8.72h0A9.68,9.68,0,0,0,133.89,73Zm-.46,7.73c-1.06,6.34-1.79,10.3-2.71,12.68A6.29,6.29,0,0,1,126,98c.27-2.25.47-4.56.53-7.07a1.59,1.59,0,0,0-3.17-.13A61.45,61.45,0,0,1,121,106.64c-2.32,6.93-4.5,11.09-9.85,15.45s-13.73,8.59-20.27,8.59c-8.85-.33-19.68-6.61-25-13.41a35.55,35.55,0,0,1-5.16-10.7,60.54,60.54,0,0,1-2.37-15.85,1.59,1.59,0,0,0-3.17.14h0c.06,2.5.26,4.88.53,7.06-4.23-1.12-4.89-4.36-5.88-8.65-.46-2.18-1-5.15-1.59-8.72v.13c-.72-3.83,3-8.38,7-7.06-.06,1.25-.13,2.57-.13,3.89a1.59,1.59,0,1,0,3.17,0h0c-.2-21.2,9-40.81,32.49-40.61C103.91,36.77,113.94,43,119,54.73c2.84,6.47,4.23,14.33,4.23,22.78a1.59,1.59,0,1,0,3.17,0c0-1.32-.07-2.57-.07-3.89,4-1.26,7.79,3.3,7.07,7.13Z"/></g><path id="パス_66" data-name="パス 66" d="M143.11,103.61c4.36-13.08,1.19-22.33-3.89-34.21-4.1-9.58-8.06-44.91-48.28-44.91S46.82,59.82,42.66,69.4c-5.08,11.88-8.25,21.13-3.89,34.21,2.24,6.8,1.38,13.07-7.33,17.43,1.38,2.71,10.37,6.8,15.38,2.71,0,0-.59,1.52-4.55,4.36,5.15,4.16,24.63,4.16,18.82-20.94-4.43-18.89.79-30.11.79-30.11H80.24c2.38-3.24,7.07-10.77,8.13-14.6a25.35,25.35,0,0,1-3.7,14.6H95.56a7.85,7.85,0,0,0,6.34-3.24,29,29,0,0,0,5.62-12.88S118,68.6,120.07,77.06c0,0,5.21,11.22.79,30.11-5.81,25.1,13.67,25.1,18.82,20.94-4-2.84-4.56-4.36-4.56-4.36,5.09,4.09,14,0,15.39-2.71-8.78-4.42-9.71-10.63-7.4-17.43Z"/><path id="パス_67" data-name="パス 67" d="M98.8,113.18a18.62,18.62,0,0,1-7.86,1.92,18.15,18.15,0,0,1-7.86-1.92.32.32,0,0,0-.39.13c-.07.07,0,.2,0,.27.72,1.25,2.77,3.63,8.25,3.63s7.53-2.38,8.26-3.63a.28.28,0,0,0-.14-.4Z"/><g id="グループ_61" data-name="グループ 61"><path id="パス_68" data-name="パス 68" class="cls-1" d="M90.75,105.36c-2.18.27-3.24-1.78-1.39-2.38s3.9-.06,4,.86S92.6,105.16,90.75,105.36Z"/><path id="パス_69" data-name="パス 69" d="M93.33,104.57c-.2-.2-1.13.33-2.45.33s-2.24-.53-2.44-.33c-.46.53.66,1.72,2.44,1.72S93.85,105.1,93.33,104.57Z"/></g><g id="グループ_62" data-name="グループ 62"><path id="パス_70" data-name="パス 70" d="M79.46,88.16a9.1,9.1,0,0,1,2,.33c.72.2.86-1-.33-1.39l-.6-.2c.07-.33.2-1.32.27-2,.06-.93-.66-.86-.8-.4s-.52,1.52-.72,2.18a11.73,11.73,0,0,0-2.58-.07h0c-.53-.46-1.32-1.85-1.71-1.85S74.64,86,75.16,87a11.69,11.69,0,0,0-2,.92c-.47-.33-1.13-1-1.39-.86s-.4.67.26,1.46a2.19,2.19,0,0,1-.72.26c-.86.13.59,2.31,2.11.79A4.84,4.84,0,0,1,75,88.62a5.06,5.06,0,0,0-1.59,3.9c0,2.7,1.59,4.82,4.29,4.82S82,95.16,82,92.52A4.77,4.77,0,0,0,79.46,88.16Z"/><path id="パス_71" data-name="パス 71" class="cls-1" d="M75.82,91.92c1.59,0,3.24-.26,3-1.45a1.8,1.8,0,0,0-2.12-1.39.25.25,0,0,0-.2.07c-1.38.33-1.32,2.77-.66,2.77Z"/><path id="パス_72" data-name="パス 72" d="M102.37,88.16a9.1,9.1,0,0,0-2,.33c-.72.2-.86-1,.33-1.39l.6-.2c-.07-.33-.2-1.32-.27-2-.06-.93.66-.86.8-.4s.52,1.52.72,2.18a11.73,11.73,0,0,1,2.58-.07h0c.53-.46,1.32-1.85,1.71-1.85s.33,1.26-.19,2.25a11.69,11.69,0,0,1,2,.92c.47-.33,1.13-1,1.39-.86s.4.67-.26,1.46a2.19,2.19,0,0,0,.72.26c.86.13-.59,2.31-2.11.79a4.84,4.84,0,0,0-1.59-.92,5.06,5.06,0,0,1,1.59,3.9c0,2.7-1.59,4.82-4.29,4.82s-4.3-2.18-4.3-4.82A4.77,4.77,0,0,1,102.37,88.16Z"/><path id="パス_73" data-name="パス 73" class="cls-1" d="M102.37,91.92c1.59,0,3.24-.26,3-1.45a1.8,1.8,0,0,0-2.12-1.39.25.25,0,0,0-.2.07C101.65,89.48,101.71,91.92,102.37,91.92Z"/></g><g id="グループ_63" data-name="グループ 63"><path id="パス_74" data-name="パス 74" d="M107.62,76.6h-8a1.59,1.59,0,0,0,0,3.17h8a1.59,1.59,0,1,0,0-3.17Z"/><path id="パス_75" data-name="パス 75" d="M82.2,76.6h-8a1.59,1.59,0,0,0,0,3.17h8a1.59,1.59,0,0,0,0-3.17Z"/></g></g></g></g></g></g></g></svg>