<svg xmlns="http://www.w3.org/2000/svg" viewBox="0 0 181.88 181.88"><defs><style>.cls-1{fill:#fff;}.cls-2{fill:none;stroke:#000;stroke-miterlimit:2.64;stroke-width:3.3px;}.cls-3{isolation:isolate;font-size:17.9px;font-family:SourceHanSansJP-Heavy-83pv-RKSJ-H, Source Han Sans JP;}</style></defs><g id="レイヤー_2" data-name="レイヤー 2"><g id="レイヤー_1-2" data-name="レイヤー 1"><g id="グループ_70" data-name="グループ 70"><g id="楕円形_17" data-name="楕円形 17"><circle class="cls-1" cx="91.1" cy="90.93" r="90.41"/><circle class="cls-2" cx="90.94" cy="90.94" r="89.29"/></g><text class="cls-3" transform="translate(52.42 156.22)">30代男性</text><path class="cls-1" d="M125.75,65.45h-.35C124,43.27,113.26,25.5,89,25.5s-35,17.77-36.42,40h-.35c-4.75-2.81-11.64,2.59-10.56,9.1,2.28,13.68,3.18,17.07,7.25,19.12a10.2,10.2,0,0,0,4,1.09h.41c1.35,8.6,4.06,14.93,7.53,19.76,5.29,7.37,18.91,15.09,28.17,15.09s22.87-7.72,28.17-15.09c3.46-4.83,6.17-11.16,7.52-19.76h.41a10.26,10.26,0,0,0,4-1.09c4.06-2,5-5.44,7.24-19.12C137.4,68,130.5,62.64,125.75,65.45Z"/><path d="M135.15,66a8.87,8.87,0,0,0-8.24-2.8C125.08,41,112.67,23.56,89,23.81,65.22,23.53,52.84,41.19,51.07,63.2,44.66,61.81,38.82,68.57,40,74.83h0c1.14,6.86,1.93,11.16,3,14.22a10.53,10.53,0,0,0,8.82,7.3c1.12,6.82,3.92,14.2,7.59,19.15C65.77,123.8,78.56,131,89,131.3c10.53-.3,23.3-7.6,29.54-15.8,3.68-5,6.47-12.32,7.59-19.15,6.62-1,8.88-5.63,10.14-12.14.54-2.47,1.07-5.52,1.72-9.38h0A10.37,10.37,0,0,0,135.15,66Zm-.51,8.28c-1.13,6.81-1.94,11-2.87,13.62a6.82,6.82,0,0,1-5.11,4.89c.3-2.39.51-4.92.6-7.63a1.69,1.69,0,0,0-3.37-.11,66.41,66.41,0,0,1-2.58,17c-2.46,7.42-4.83,11.9-10.55,16.63S96,127.88,89,127.92c-9.49-.34-21.18-7.06-26.8-14.39a38.35,38.35,0,0,1-5.53-11.48,66.46,66.46,0,0,1-2.57-17,1.69,1.69,0,0,0-3.38.12h0c.1,2.71.3,5.24.6,7.63-4.52-1.2-5.23-4.68-6.3-9.3-.51-2.37-1.07-5.56-1.71-9.38l0,.16c-.81-4.1,3.28-9,7.49-7.62-.07,1.37-.11,2.76-.11,4.16a1.69,1.69,0,0,0,3.38,0h0C53.9,48,63.74,26.91,89,27.19c14.1-.11,24.88,6.56,30.37,19.15,3.08,7,4.53,15.42,4.52,24.47a1.69,1.69,0,0,0,3.38,0c0-1.4,0-2.79-.1-4.17C131.35,65.25,135.46,70.19,134.64,74.28Z"/><path d="M141.44,65.54c-1.79-3.55-13-66.25-55.53-51C66.65,8.69,53.23,24.79,46.7,38.25c-15.88,32.73-6.17,30.51-5,36.3s11.24,6,11.24,6a1.54,1.54,0,0,0,3-.28v-.11c2.6-.88,6-3.55,6.24-11.45.45-13,13.36-28.26,18.94-25.2,15.79-9.17,14,13.36,23.1,27.3s17.14,17.59,21.36,17.82c.4-1.51.75-2.87,1.05-4.1a5.91,5.91,0,0,1,6.59-4.37,3.76,3.76,0,0,0,2.21-.44C139.65,77.55,143.23,69.08,141.44,65.54Z"/><path d="M97.11,108.44c-1.07,1-5.23,1.72-8.34,1.72s-7.27-.68-8.34-1.72c-.88-.86-1.41.31-.61,1.35s4.34,2.58,9,2.58,8.16-1.54,9-2.58S98,107.58,97.11,108.44Z"/><path d="M91.91,99.78c0,.84-1.2,1.51-2.68,1.51s-2.68-.67-2.68-1.51,1.2,0,2.68,0S91.91,99,91.91,99.78Z"/><ellipse class="cls-1" cx="74.57" cy="88.12" rx="5.93" ry="7.4"/><ellipse class="cls-1" cx="103.41" cy="88.12" rx="5.93" ry="7.4"/><path d="M79.65,82.17a6.27,6.27,0,0,0-10.17,0,9.89,9.89,0,0,0,0,11.9,6.27,6.27,0,0,0,10.17,0,9.89,9.89,0,0,0,0-11.9ZM74.57,94.36a4.25,4.25,0,0,1-3.3-1.73,7.61,7.61,0,0,1,0-9,4,4,0,0,1,6.59,0,7.22,7.22,0,0,1,.7,1.11A2.91,2.91,0,0,0,76.64,84c-1.84,0-3.34,1.86-3.34,4.16s1.5,4.16,3.34,4.16a2.91,2.91,0,0,0,1.92-.76,6.77,6.77,0,0,1-.7,1.11A4.24,4.24,0,0,1,74.57,94.36Z"/><path d="M108.5,82.17a6.28,6.28,0,0,0-10.18,0,9.89,9.89,0,0,0,0,11.9,6.28,6.28,0,0,0,10.18,0,9.89,9.89,0,0,0,0-11.9Zm-5.09,12.19a4.23,4.23,0,0,1-3.29-1.73,7.61,7.61,0,0,1,0-9,4,4,0,0,1,6.58,0,6,6,0,0,1,.7,1.11,2.87,2.87,0,0,0-1.92-.76c-1.84,0-3.33,1.86-3.33,4.16s1.49,4.16,3.33,4.16a2.87,2.87,0,0,0,1.92-.76,6.53,6.53,0,0,1-.7,1.11A4.21,4.21,0,0,1,103.41,94.36Z"/><path d="M81.85,74.53c-3.33-1.72-9.89-2.31-13.34-2s-2.9-1.89,2.31-2.11,10.61,1,12.37,2.34S83.38,75.32,81.85,74.53Z"/><path d="M96.12,74.53c3.33-1.72,9.89-2.31,13.34-2s2.9-1.89-2.31-2.11-10.61,1-12.36,2.34S94.6,75.32,96.12,74.53Z"/></g></g></g></svg>